<svg viewBox="0 0 400 300" xmlns="http://www.w3.org/2000/svg">
  <defs>
    <linearGradient id="b4" x1="0" y1="0" x2="0" y2="1"><stop offset="0%" stop-color="#faf7f2"/><stop offset="100%" stop-color="#fff7ed"/></linearGradient>
  </defs>
  <rect width="400" height="300" fill="url(#b4)"/>
  <ellipse cx="200" cy="130" rx="180" ry="60" fill="#f7efe3" opacity="0.6"/>
  <!-- 房屋 -->
  <rect x="110" y="135" width="180" height="105" rx="8" fill="#fff" stroke="#e5e8ec" stroke-width="1"/>
  <polygon points="100,142 200,80 300,142" fill="#ea7356"/>
  <polygon points="105,139 200,82 295,139" fill="#f5a78a"/>
  <!-- 烟囱 -->
  <rect x="238" y="70" width="18" height="28" fill="#f5e6d3" stroke="#ede0cb" stroke-width="1"/>
  <circle cx="247" cy="68" r="6" fill="#fef3ee" opacity="0.8"/>
  <!-- 门 -->
  <rect x="178" y="195" width="44" height="45" rx="4" fill="#0284c7"/>
  <circle cx="214" cy="220" r="3" fill="#fff"/>
  <!-- 栅栏 -->
  <rect x="100" y="220" width="4" height="20" rx="1" fill="#d4a574" opacity="0.6"/>
  <rect x="114" y="220" width="4" height="20" rx="1" fill="#d4a574" opacity="0.6"/>
  <rect x="282" y="220" width="4" height="20" rx="1" fill="#d4a574" opacity="0.6"/>
  <rect x="296" y="220" width="4" height="20" rx="1" fill="#d4a574" opacity="0.6"/>
  <!-- 小径 -->
  <path d="M200 240 L200 300" stroke="#e5e8ec" stroke-width="12" stroke-linecap="round" fill="none" opacity="0.5"/>
  <text x="200" y="285" text-anchor="middle" fill="#c2410c" font-family="sans-serif" font-size="13" font-weight="600">🏡 乡村小院</text>
</svg>