<svg viewBox="0 0 400 300" xmlns="http://www.w3.org/2000/svg">
  <defs>
    <linearGradient id="b5" x1="0" y1="0" x2="0" y2="1"><stop offset="0%" stop-color="#eff6ff"/><stop offset="100%" stop-color="#f0f9ff"/></linearGradient>
  </defs>
  <rect width="400" height="300" fill="url(#b5)"/>
  <ellipse cx="300" cy="80" rx="80" ry="40" fill="#dbeafe" opacity="0.4"/>
  <ellipse cx="100" cy="280" rx="160" ry="50" fill="#d1fae5" opacity="0.4"/>
  <!-- 四合院布局 -->
  <rect x="90" y="140" width="220" height="100" rx="6" fill="#fff" stroke="#e5e8ec" stroke-width="1"/>
  <!-- 主楼 -->
  <rect x="70" y="115" width="260" height="35" rx="4" fill="#fff" stroke="#e5e8ec" stroke-width="1"/>
  <polygon points="60,120 200,60 340,120" fill="#ea7356"/>
  <polygon points="65,117 200,62 335,117" fill="#f5a78a"/>
  <!-- 门洞 -->
  <path d="M180 240 L180 200 Q200 185 220 200 L220 240" fill="#0284c7"/>
  <rect x="193" y="210" width="14" height="14" rx="2" fill="#fff" opacity="0.5"/>
  <!-- 门灯 -->
  <circle cx="175" cy="198" r="5" fill="#fce7c8"/>
  <circle cx="225" cy="198" r="5" fill="#fce7c8"/>
  <!-- 砖墙纹理 -->
  <line x1="95" y1="155" x2="305" y2="155" stroke="#f3f5f8" stroke-width="1"/>
  <line x1="95" y1="170" x2="305" y2="170" stroke="#f3f5f8" stroke-width="1"/>
  <line x1="95" y1="185" x2="305" y2="185" stroke="#f3f5f8" stroke-width="1"/>
  <rect x="115" y="145" width="20" height="16" rx="2" fill="#e0f2fe"/>
  <rect x="155" y="145" width="20" height="16" rx="2" fill="#e0f2fe"/>
  <rect x="225" y="145" width="20" height="16" rx="2" fill="#e0f2fe"/>
  <rect x="265" y="145" width="20" height="16" rx="2" fill="#e0f2fe"/>
  <text x="200" y="285" text-anchor="middle" fill="#c2410c" font-family="sans-serif" font-size="13" font-weight="600">🏯 老城四合院</text>
</svg>